<svg xmlns="http://www.w3.org/2000/svg" viewBox="0 0 48 48">
  <rect width="48" height="48" rx="10" fill="#2dd4bf"/>
  <path fill="#0f1722" d="M15 18.5A5.5 5.5 0 0 1 20.5 13h7A5.5 5.5 0 0 1 33 18.5v9A5.5 5.5 0 0 1 27.5 33h-7A5.5 5.5 0 0 1 15 27.5v-9Zm5.5-1.5A1.5 1.5 0 0 0 19 18.5v9a1.5 1.5 0 0 0 1.5 1.5h7a1.5 1.5 0 0 0 1.5-1.5v-9a1.5 1.5 0 0 0-1.5-1.5h-7Z"/>
  <path fill="#0f1722" d="M22 9h4v5h-4V9Zm-9 13h4v4h-4v-4Zm18 0h4v4h-4v-4ZM20 36h8v4h-8v-4Z"/>
  <path fill="#f8fafc" d="M20 22a2 2 0 1 1 4 0 2 2 0 0 1-4 0Zm6 0a2 2 0 1 1 4 0 2 2 0 0 1-4 0Zm-5 5h6v2h-6v-2Z"/>
</svg>
